<svg xmlns="http://www.w3.org/2000/svg" width="800" height="500" viewBox="0 0 800 500" role="img" aria-label="">
  <defs>
    <linearGradient id="cielo" x1="0" y1="0" x2="0" y2="1">
      <stop offset="0%" stop-color="#dce8f2"/>
      <stop offset="100%" stop-color="#c8d8e8"/>
    </linearGradient>
    <linearGradient id="suelo" x1="0" y1="0" x2="1" y2="0">
      <stop offset="0%" stop-color="#b8c9d8"/>
      <stop offset="100%" stop-color="#a8bccf"/>
    </linearGradient>
  </defs>
  <rect width="800" height="500" fill="url(#cielo)"/>
  <rect y="320" width="800" height="180" fill="url(#suelo)"/>
  <g fill="#8fa3b8" opacity="0.55">
    <ellipse cx="180" cy="290" rx="14" ry="18"/>
    <ellipse cx="220" cy="285" rx="12" ry="16"/>
    <ellipse cx="260" cy="292" rx="13" ry="17"/>
    <ellipse cx="300" cy="288" rx="12" ry="16"/>
    <ellipse cx="340" cy="295" rx="14" ry="18"/>
    <ellipse cx="380" cy="290" rx="12" ry="16"/>
    <ellipse cx="420" cy="287" rx="13" ry="17"/>
    <ellipse cx="460" cy="293" rx="12" ry="16"/>
    <ellipse cx="500" cy="289" rx="14" ry="18"/>
    <ellipse cx="540" cy="296" rx="12" ry="16"/>
    <ellipse cx="580" cy="291" rx="13" ry="17"/>
    <ellipse cx="620" cy="288" rx="12" ry="16"/>
  </g>
  <ellipse cx="650" cy="120" rx="70" ry="70" fill="#f5e6c8" opacity="0.75"/>
</svg>
